<svg xmlns="http://www.w3.org/2000/svg" viewBox="0 0 16 15.98"><defs><style>.cls-1{fill:#fff;}</style></defs><title>icon-搜索-白</title><g id="图层_2" data-name="图层 2"><g id="图层_1-2" data-name="图层 1"><path class="cls-1" d="M6.28,12.56A6.34,6.34,0,0,1,0,6.28,6.33,6.33,0,0,1,6.28,0a6.34,6.34,0,0,1,6.28,6.28A6.34,6.34,0,0,1,6.28,12.56Zm0-11.42a5.14,5.14,0,1,0,5.14,5.14A5.11,5.11,0,0,0,6.28,1.14Z"/><path class="cls-1" d="M10.85,10.06l5,5a.57.57,0,0,1,0,.79.61.61,0,0,1-.43.14c-.14,0-.36,0-.43-.14l-5-5Z"/></g></g></svg>