<svg xmlns="http://www.w3.org/2000/svg" viewBox="0 0 198.91 198.91"><defs><style>.cls-1{fill:#696969;}</style></defs><title>置顶</title><g id="图层_2" data-name="图层 2"><g id="图层_1-2" data-name="图层 1"><path class="cls-1" d="M99.45,0a99.46,99.46,0,1,0,99.46,99.45A99.46,99.46,0,0,0,99.45,0Zm45,117.52a6.06,6.06,0,0,1-4.3-1.78L105.43,81.09v80.49a6.08,6.08,0,0,1-12.15,0V81.28L58.92,115.64a6.1,6.1,0,1,1-8.74-8.51L95,62.27a6.08,6.08,0,0,1,8.79-.06l44.9,44.92a6.1,6.1,0,0,1-4.32,10.39Zm5.74-62.77H48.77a6.08,6.08,0,0,1,0-12.15H150.14a6.08,6.08,0,0,1,0,12.15Z"/></g></g></svg>