<svg id="图层_1" data-name="图层 1" xmlns="http://www.w3.org/2000/svg" xmlns:xlink="http://www.w3.org/1999/xlink" viewBox="0 0 54 54"><defs><style>.cls-1{fill:url(#未命名的渐变_25);}.cls-2{fill:url(#未命名的渐变_25-2);}</style><linearGradient id="未命名的渐变_25" x1="11.06" y1="11.06" x2="42.94" y2="42.94" gradientUnits="userSpaceOnUse"><stop offset="0" stop-color="#ffc900"/><stop offset="1" stop-color="#e71"/></linearGradient><linearGradient id="未命名的渐变_25-2" x1="24.14" y1="24.14" x2="29.86" y2="29.86" xlink:href="#未命名的渐变_25"/></defs><title>icon-发现-hover</title><path class="cls-1" d="M27,4.45A22.55,22.55,0,1,0,49.55,27,22.58,22.58,0,0,0,27,4.45Zm6.85,26a1.73,1.73,0,0,1-.77,1.24l-12,7.78a1.69,1.69,0,0,1-.94.28,1.72,1.72,0,0,1-1.71-1.93l1.7-14.19a1.71,1.71,0,0,1,.77-1.24l12-7.78a1.72,1.72,0,0,1,2.65,1.65Z"/><path class="cls-2" d="M22.31,34.52l8.21-5.33,1.17-9.71-8.21,5.33Zm3.16-8.47a2,2,0,1,1,.63,2.7A2,2,0,0,1,25.47,26.05Z"/></svg>