<svg id="图层_1" data-name="图层 1" xmlns="http://www.w3.org/2000/svg" xmlns:xlink="http://www.w3.org/1999/xlink" viewBox="0 0 54 54"><defs><style>.cls-1{fill:url(#未命名的渐变_25);}</style><linearGradient id="未命名的渐变_25" x1="14.45" y1="14.28" x2="41.1" y2="40.92" gradientUnits="userSpaceOnUse"><stop offset="0" stop-color="#ffc900"/><stop offset="1" stop-color="#e71"/></linearGradient></defs><title>icon-首页-hover</title><path class="cls-1" d="M36.31,31.12h0a10.85,10.85,0,0,1,.09,1.4,11.79,11.79,0,1,1-23.57-.21l0,0a19.84,19.84,0,0,0,16.58-.51A9.67,9.67,0,0,1,32.07,31,14.07,14.07,0,0,1,36.31,31.12Zm10-17.73-4.22-2.14a1.62,1.62,0,0,0-1.24-.09A1.59,1.59,0,0,0,40,12l-4.43,8.76a1.61,1.61,0,0,0,.21,1.79,14.64,14.64,0,0,1-3.2,21.88,1.63,1.63,0,0,0,.88,3,1.58,1.58,0,0,0,.88-.26A17.89,17.89,0,0,0,38.9,21.26l3.22-6.37,2.77,1.41a1.63,1.63,0,1,0,1.47-2.91ZM22.58,46.57a14.66,14.66,0,0,1-11-21.11,14.57,14.57,0,0,1,14.18-8,1.64,1.64,0,0,0,1.57-.89l4.44-8.76a1.69,1.69,0,0,0,.09-1.25,1.6,1.6,0,0,0-.81-.94L26.82,3.5a1.63,1.63,0,1,0-1.47,2.91l2.78,1.4L24.9,14.18A17.89,17.89,0,0,0,16.56,48a17.67,17.67,0,0,0,5.56,1.75l.23,0a1.63,1.63,0,0,0,.23-3.24ZM29.49,46a1.63,1.63,0,1,0,1.63,1.63A1.63,1.63,0,0,0,29.49,46Z"/></svg>