<svg id="图层_1" data-name="图层 1" xmlns="http://www.w3.org/2000/svg" xmlns:xlink="http://www.w3.org/1999/xlink" viewBox="0 0 54 54"><defs><style>.cls-1{fill:url(#未命名的渐变_25);}</style><linearGradient id="未命名的渐变_25" x1="8.18" y1="9.47" x2="44.53" y2="45.82" gradientUnits="userSpaceOnUse"><stop offset="0" stop-color="#ffc900"/><stop offset="1" stop-color="#e71"/></linearGradient></defs><title>icon-分类-hover</title><path class="cls-1" d="M25.41,12.05v8.8a4.56,4.56,0,0,1-4.56,4.56h-8.8a4.56,4.56,0,0,1-4.56-4.56v-8.8a4.56,4.56,0,0,1,4.56-4.56h8.8A4.56,4.56,0,0,1,25.41,12.05ZM37.55,7.49a9,9,0,0,0-9,9h0a9,9,0,0,0,17.92,0h0A9,9,0,0,0,37.55,7.49ZM42,28.59h-8.8a4.56,4.56,0,0,0-4.56,4.56V42a4.56,4.56,0,0,0,4.56,4.56H42A4.56,4.56,0,0,0,46.51,42v-8.8A4.56,4.56,0,0,0,42,28.59Zm-21.1,0h-8.8a4.56,4.56,0,0,0-4.56,4.56V42a4.56,4.56,0,0,0,4.56,4.56h8.8A4.56,4.56,0,0,0,25.41,42v-8.8A4.56,4.56,0,0,0,20.85,28.59Z"/></svg>