<svg id="图层_1" data-name="图层 1" xmlns="http://www.w3.org/2000/svg" viewBox="0 0 54 54"><defs><style>.cls-1{fill:#8e8e8e;}</style></defs><title>icon-分类-normal</title><path class="cls-1" d="M20.85,10.49a1.56,1.56,0,0,1,1.56,1.56v8.8a1.56,1.56,0,0,1-1.56,1.56h-8.8a1.56,1.56,0,0,1-1.56-1.56v-8.8a1.56,1.56,0,0,1,1.56-1.56h8.8m0-3h-8.8a4.56,4.56,0,0,0-4.56,4.56v8.8a4.56,4.56,0,0,0,4.56,4.56h8.8a4.56,4.56,0,0,0,4.56-4.56v-8.8a4.56,4.56,0,0,0-4.56-4.56Z"/><path class="cls-1" d="M37.55,10.49a6,6,0,1,1-6,6,6,6,0,0,1,6-6m0-3h0a9,9,0,0,0-9,9h0a9,9,0,0,0,9,9h0a9,9,0,0,0,9-9h0a9,9,0,0,0-9-9Z"/><path class="cls-1" d="M42,31.59a1.56,1.56,0,0,1,1.56,1.56V42A1.56,1.56,0,0,1,42,43.51h-8.8A1.56,1.56,0,0,1,31.59,42v-8.8a1.56,1.56,0,0,1,1.56-1.56H42m0-3h-8.8a4.56,4.56,0,0,0-4.56,4.56V42a4.56,4.56,0,0,0,4.56,4.56H42A4.56,4.56,0,0,0,46.51,42v-8.8A4.56,4.56,0,0,0,42,28.59Z"/><path class="cls-1" d="M20.85,31.59a1.56,1.56,0,0,1,1.56,1.56V42a1.56,1.56,0,0,1-1.56,1.56h-8.8A1.56,1.56,0,0,1,10.49,42v-8.8a1.56,1.56,0,0,1,1.56-1.56h8.8m0-3h-8.8a4.56,4.56,0,0,0-4.56,4.56V42a4.56,4.56,0,0,0,4.56,4.56h8.8A4.56,4.56,0,0,0,25.41,42v-8.8a4.56,4.56,0,0,0-4.56-4.56Z"/></svg>