<svg id="图层_1" data-name="图层 1" xmlns="http://www.w3.org/2000/svg" xmlns:xlink="http://www.w3.org/1999/xlink" viewBox="0 0 54 54"><defs><style>.cls-1{fill:url(#未命名的渐变_25);}</style><linearGradient id="未命名的渐变_25" x1="5.48" y1="27" x2="48.52" y2="27" gradientUnits="userSpaceOnUse"><stop offset="0" stop-color="#ffc900"/><stop offset="1" stop-color="#e71"/></linearGradient></defs><title>icon-购物车-hover</title><path class="cls-1" d="M44.42,37.24H17.52a1.49,1.49,0,0,1-1.45-1.19L11.3,12.65a.44.44,0,0,1,0-.1L11,11.38C10.67,9.89,9.82,8,8,8H7a1.48,1.48,0,0,1,0-3H8c2.91,0,5.08,2.06,6,5.65L14,11l30.4,4.48a4.84,4.84,0,0,1,4.07,5.62L45.88,36A1.48,1.48,0,0,1,44.42,37.24ZM22.32,48.92a5.25,5.25,0,1,1,5.25-5.25A5.26,5.26,0,0,1,22.32,48.92Zm17.57,0a5.25,5.25,0,1,1,5.25-5.25A5.25,5.25,0,0,1,39.89,48.92Z"/></svg>