<svg xmlns="http://www.w3.org/2000/svg" viewBox="0 0 93.38 79.9"><defs><style>.cls-1{fill:#f5c270;}</style></defs><title>icon-正规发票</title><g id="图层_2" data-name="图层 2"><g id="图层_1-2" data-name="图层 1"><path class="cls-1" d="M19.19,2.15V14.93A2.78,2.78,0,0,0,22,17.72h0a2.79,2.79,0,0,0,2.78-2.79V5.56H68.63v9.37a2.78,2.78,0,0,0,2.78,2.79h0a2.79,2.79,0,0,0,2.78-2.79V2.15A2.15,2.15,0,0,0,72,0H21.33A2.14,2.14,0,0,0,19.19,2.15Z"/><path class="cls-1" d="M29.69,12V47.77a.92.92,0,0,0,1.5.71l5.28-4.33a.5.5,0,0,1,.7,0l4.23,4.24a.5.5,0,0,0,.7,0l4.23-4.24a.5.5,0,0,1,.7,0l4.23,4.24a.5.5,0,0,0,.7,0l4.23-4.24a.49.49,0,0,1,.69,0l5.31,4.34a.91.91,0,0,0,1.49-.71V12a2.08,2.08,0,0,0-2.09-2.09H31.78A2.09,2.09,0,0,0,29.69,12ZM57.81,34.61H35.56a1.55,1.55,0,0,1,0-3.09H57.81a1.55,1.55,0,1,1,0,3.09Zm0-7.73H35.56a1.55,1.55,0,0,1,0-3.09H57.81a1.55,1.55,0,1,1,0,3.09Zm0-7.72H35.56a1.55,1.55,0,0,1,0-3.09H57.81a1.55,1.55,0,1,1,0,3.09Z"/><path class="cls-1" d="M21.19,58.71v2.81H12.84v5.53h8.25v3H12.84v6.66h8.72v2.81H0V76.71H2V64.52H5.53V76.71H9.28V61.52H.56V58.71Z"/><path class="cls-1" d="M24.38,60.21h2.9V58.43h3.28v1.78h3.1v3h-3.1v4.12h3.1v3H30.09l-.37,1.6h1.5l1.22,4.68q.18.86.75.75h.47v2.53h-1.6c-1.12.07-1.81-.53-2.06-1.78l-.94-3.56L28.22,78a1.72,1.72,0,0,1-2.06,1.69H24.28V77.46h.38a1,1,0,0,0,1-.85l1.4-6.28H24.28v-3h3V63.21h-2.9ZM34.5,58.43H45.38V72.77H42.56V61.43H37.41V72.86H34.5Zm2,18.37,2.06-4.41V62.74h3v10l-.47.94h2.25V76.8c-.06.44.16.63.66.56h1.5V79.8H41.81q-1.79.09-1.5-1.59V75.39l-1.5,3.19a2.44,2.44,0,0,1-2.62,1.31h-1.6V77.36h.94A.81.81,0,0,0,36.47,76.8Z"/><path class="cls-1" d="M48.47,63.58v-2l.84-3.56h3.1l-.66,2.53h1.41l.56-2.53h3.47l-.57,2.53h9.47c.38.13.53-.06.47-.56V58.14h3.19v3.57c0,1.37-.59,2-1.78,1.87H56.06l-.47,2.16H69.75v3l-5.25,6,1.41,1.5a1.32,1.32,0,0,0,1.31.56h2.44v2.53H65.34a2.24,2.24,0,0,1-1.59-.56l-1.59-1.5-1.69,1.5a3.4,3.4,0,0,1-2.06.56H54.56V76.71h2.16a2.36,2.36,0,0,0,1.4-.47l1.69-1.5-4.4-4.88h4.68l2.07,2.35,3.28-3.57H55l-1.78,8.91c-.25,1.25-.75,1.84-1.5,1.78H48.38V76.61h1.21c.38.07.6-.12.66-.56l2.44-12.47Z"/><path class="cls-1" d="M71.91,77.08h2.43A.73.73,0,0,0,75,76.8l.66-1h3.28l-1.32,2.91a1.8,1.8,0,0,1-1.78.93H71.91Zm6.18-16.22h-6V58.24h21.1v2.62H87.28v.94h5.91v4.5c.12,1.56-.75,2.28-2.63,2.16H72V61.8h6.09Zm3,14.35H72V72.58H93.38v2.63h-9v2.25a2,2,0,0,1-2.16,2.15h-3V77.08h1.22c.43,0,.65-.25.65-.75ZM92.81,69.3v2.34H72.56V69.3ZM75.38,65.93h2.71V64.52H75.38Zm6-5.07v.94h2.53v-.94Zm0,5.07H84V64.52H81.38Zm6.84,12.93-2.16-3.09h3.85l.75,1c.06.19.28.28.65.28h2.07v2.53H89.72A1.92,1.92,0,0,1,88.22,78.86Zm1.87-13.4v-.94H87.28v1.41h2.34A.41.41,0,0,0,90.09,65.46Z"/></g></g></svg>