<svg xmlns="http://www.w3.org/2000/svg" viewBox="0 0 142.59 56.83"><defs><style>.cls-1{fill:#565656;}.cls-2{fill:#e71;}.cls-3{fill:none;stroke:#e71;stroke-miterlimit:10;stroke-width:1.73px;}</style></defs><title>实验淘新logo</title><g id="图层_2" data-name="图层 2"><g id="图层_1-2" data-name="图层 1"><path class="cls-1" d="M31.42,53.05a1.73,1.73,0,0,0,2.42.55,21.93,21.93,0,0,0,10-18.4,21.69,21.69,0,0,0-6.26-15.34v0l3.73-8.72s0,0,0,0l2,.87a1.73,1.73,0,0,0,2.42-1.42,1.71,1.71,0,0,0-1-1.75L41.13,7.21a1.78,1.78,0,0,0-1.34,0,1.7,1.7,0,0,0-.95.93L33.93,19.58a1.74,1.74,0,0,0,.43,2,15.61,15.61,0,0,1,1.28,1.29A18.45,18.45,0,0,1,32,50.69a1.74,1.74,0,0,0-.55,2.36Z"/><path class="cls-1" d="M20.17,54.94a1.73,1.73,0,0,1-2,1.86,21.93,21.93,0,0,1,2.61-43.5s0,0,0,0l3.83-8.88s0,0,0,0L22.32,3.3A1.73,1.73,0,1,1,23.78.17L27.61,2a1.73,1.73,0,0,1,.85,2.25L23.52,15.69a1.74,1.74,0,0,1-1.59,1,18.47,18.47,0,0,0-3.2,36.66,1.73,1.73,0,0,1,1.44,1.55Z"/><circle class="cls-1" cx="27.99" cy="54.44" r="1.69"/><circle class="cls-2" cx="16.21" cy="28.11" r="2.03"/><circle class="cls-2" cx="27.45" cy="28.11" r="2.03"/><circle class="cls-2" cx="37.05" cy="3.59" r="2.37"/><circle class="cls-2" cx="31.05" cy="8.98" r="1.79"/><circle class="cls-2" cx="31.27" cy="17.4" r="1.26"/><path class="cls-2" d="M30.86,33.57a11.86,11.86,0,0,0-3.09.93,23.39,23.39,0,0,1-19.56.61s0,0,0,0A13.9,13.9,0,1,0,36,35.38a14.92,14.92,0,0,0-.1-1.65l0,0A16.82,16.82,0,0,0,30.86,33.57Z"/><path class="cls-1" d="M81,25.66H72.3l3.23-7.86a1.23,1.23,0,0,0-.6-1.57l0,0a1.14,1.14,0,0,0-1.54.59l-3.61,8.86H58.23a1.27,1.27,0,1,0,0,2.54H81a1.27,1.27,0,0,0,0-2.54Z"/><path class="cls-1" d="M79.39,34.05,71.05,29.4a3.58,3.58,0,0,0-3.66,0L59.06,34a1.26,1.26,0,1,0,1.23,2.2l8.18-4.55a1.32,1.32,0,0,1,1.52,0l8.08,4.49a1.33,1.33,0,0,0,1.8-.41A1.25,1.25,0,0,0,79.39,34.05Z"/><path class="cls-1" d="M65.62,22.55l-2.88-3.07a1.21,1.21,0,0,0-1.78,0h0a1.22,1.22,0,0,0,0,1.65l2.88,3.07a1.21,1.21,0,0,0,1.79-1.64Z"/><path class="cls-2" d="M64,15.25h0a1.21,1.21,0,0,0,0,1.65l3.17,3.46a1.2,1.2,0,0,0,1.77,0h0a1.21,1.21,0,0,0,0-1.65l-3.17-3.46A1.2,1.2,0,0,0,64,15.25Z"/><path class="cls-1" d="M93.5,27.71A1.26,1.26,0,0,0,91.83,27L88,28.68a1.26,1.26,0,0,0-.71,1.57h0a1.26,1.26,0,0,0,1.66.76l3.84-1.73A1.25,1.25,0,0,0,93.5,27.71Z"/><path class="cls-1" d="M95,10.67a2.77,2.77,0,0,0-2.16-1H88.63a1.27,1.27,0,1,0,0,2.54h4.25c.48,0,.73.27.73.8v6.1a1.17,1.17,0,1,0,2.34,0V13A3.25,3.25,0,0,0,95,10.67Z"/><path class="cls-1" d="M95.83,22.42a2.77,2.77,0,0,0-2.16-1H90.89c-.37,0-.56-.2-.56-.6V15A1.17,1.17,0,0,0,88,15v5.84a3.13,3.13,0,0,0,.85,2.22,2.66,2.66,0,0,0,2,.92h2.78c.48,0,.73.27.73.8V33c0,.53-.25.8-.73.8H89.26A1.27,1.27,0,0,0,88,35.09h0a1.27,1.27,0,0,0,1.27,1.27h4.41a2.83,2.83,0,0,0,2.16-1A3.32,3.32,0,0,0,96.74,33V24.77A3.25,3.25,0,0,0,95.83,22.42Z"/><path class="cls-1" d="M113.14,18.55l-5-6c-.7-.84-1.37-1.72-2-2.58a1.81,1.81,0,0,0-1.25-.86c-.8,0-1.44,1.1-1.93,1.76l-6,7.28a1.21,1.21,0,0,0,.18,1.62h0a1.21,1.21,0,0,0,1.76-.19l5.88-7.12s0,0,.08,0a.12.12,0,0,1,.09,0L111.19,20a1.21,1.21,0,1,0,2-1.44Z"/><path class="cls-1" d="M111.54,33.88a1,1,0,0,1,.82.39,1.16,1.16,0,0,1,.36.88,1.25,1.25,0,0,1-.36.89,1,1,0,0,1-.82.39H98.93a1.09,1.09,0,0,1-.82-.39,1.28,1.28,0,0,1-.35-.89,1.19,1.19,0,0,1,.35-.88,1.09,1.09,0,0,1,.82-.39Z"/><path class="cls-1" d="M101.68,18.77a1.27,1.27,0,1,0,0,2.54h6.12A1.27,1.27,0,0,0,109.07,20h0a1.27,1.27,0,0,0-1.27-1.27Z"/><path class="cls-1" d="M119.72,18.12h0a1.19,1.19,0,0,0-1.21,1.19l.08,8.31a1.19,1.19,0,1,0,2.38,0l-.08-8.31A1.18,1.18,0,0,0,119.72,18.12Z"/><path class="cls-1" d="M58.16,10.8h0A1.19,1.19,0,0,0,56.94,12v5a1.19,1.19,0,1,0,2.37,0V12A1.19,1.19,0,0,0,58.16,10.8Z"/><path class="cls-1" d="M128,8.86a1.18,1.18,0,0,0-1.59.64L124,15.6a1.19,1.19,0,0,0,.6,1.52h0a1.19,1.19,0,0,0,1.61-.64l2.41-6.1A1.18,1.18,0,0,0,128,8.86Z"/><path class="cls-1" d="M137.92,22.48h-4.6V19.69h3.27a1.27,1.27,0,1,0,0-2.54h-7.05l.16-.43a1.17,1.17,0,0,0-2.19-.8l-1.39,3.82a1.18,1.18,0,1,0,2.23.8l.31-.85H131v2.79h-4.82a1.27,1.27,0,0,0,0,2.54H131v3.67a1.17,1.17,0,0,0,1.17,1.17h0a1.17,1.17,0,0,0,1.18-1.17V25h4.6a1.27,1.27,0,1,0,0-2.54Z"/><path class="cls-1" d="M137.38,26.1a1.17,1.17,0,0,0-1.17,1.17v2.8c0,.4-.17.6-.52.6h-7.06c-.37,0-.55-.2-.55-.6v-2.8a1.18,1.18,0,0,0-1.17-1.17h0a1.17,1.17,0,0,0-1.17,1.17v2.8a3.13,3.13,0,0,0,.85,2.22,2.64,2.64,0,0,0,2,.92h7.06a2.55,2.55,0,0,0,2-.92,3.13,3.13,0,0,0,.85-2.22v-2.8A1.17,1.17,0,0,0,137.38,26.1Z"/><path class="cls-1" d="M141.54,11.81a3.31,3.31,0,0,0-2.46-1h-8.61a1.27,1.27,0,0,0,0,2.54h8.61c.78,0,1.17.43,1.17,1.28V32.55c0,.84-.39,1.27-1.17,1.27h-5a1.27,1.27,0,0,0-1.27,1.27h0a1.27,1.27,0,0,0,1.27,1.27h5a3.28,3.28,0,0,0,2.6-1.14,4,4,0,0,0,.91-2.67V14.61A3.84,3.84,0,0,0,141.54,11.81Z"/><circle class="cls-2" cx="119.74" cy="11.96" r="1.54"/><circle class="cls-1" cx="119.74" cy="34.87" r="1.54"/><path class="cls-1" d="M80.61,11.94a3.25,3.25,0,0,0-2.48-1.11H70.46V9.45a1.25,1.25,0,0,0-1.24-1.24h0A1.25,1.25,0,0,0,68,9.45v1.38H61.09a1.27,1.27,0,1,0,0,2.54h17a1,1,0,0,1,.82.38,1.21,1.21,0,0,1,.35.89V17a1.17,1.17,0,0,0,2.34,0V14.64A3.81,3.81,0,0,0,80.61,11.94Z"/><path class="cls-1" d="M111.67,25.76a.94.94,0,0,0-1.27.17l-1.9,2.39a.3.3,0,0,1-.48,0l-1.91-2.39a.93.93,0,0,0-1.45,1.16l2.56,3.22a1.31,1.31,0,0,0,1,.5h0a1.36,1.36,0,0,0,1.08-.5l2.55-3.22A.94.94,0,0,0,111.67,25.76Z"/><circle class="cls-3" cx="101.31" cy="28.2" r="2.18"/><path class="cls-2" d="M59.17,52.65h4.32V55H58.34a1.4,1.4,0,0,1-1.4-1.4V44.08a1.4,1.4,0,0,1,1.4-1.4h.83Z"/><path class="cls-2" d="M71,46.19h.89a1.2,1.2,0,0,1,1.2,1.2v6.37A1.21,1.21,0,0,1,71.86,55H71v-1a3,3,0,0,1-2.63,1.28,3.53,3.53,0,0,1-2.78-1.34,5.25,5.25,0,0,1,0-6.58A3.53,3.53,0,0,1,68.34,46,3,3,0,0,1,71,47.23Zm-3.85,6.17a2.08,2.08,0,0,0,1.6.69,2.12,2.12,0,0,0,1.62-.69,2.83,2.83,0,0,0,0-3.56,2.13,2.13,0,0,0-1.62-.7,2.09,2.09,0,0,0-1.6.7,2.83,2.83,0,0,0,0,3.56Z"/><path class="cls-2" d="M99.49,46.19h.88a1.21,1.21,0,0,1,1.21,1.2v6.37A1.21,1.21,0,0,1,100.37,55h-.88v-1a3.08,3.08,0,0,1-2.64,1.28,3.56,3.56,0,0,1-2.78-1.34,5.25,5.25,0,0,1,0-6.58A3.53,3.53,0,0,1,96.85,46a3.08,3.08,0,0,1,2.64,1.28Zm-3.85,6.17a2.07,2.07,0,0,0,1.6.69,2.1,2.1,0,0,0,1.61-.69,2.8,2.8,0,0,0,0-3.56,2.11,2.11,0,0,0-1.61-.7,2.08,2.08,0,0,0-1.6.7,2.8,2.8,0,0,0,0,3.56Z"/><path class="cls-2" d="M130.14,46.19H131a1.21,1.21,0,0,1,1.21,1.2v6.37A1.21,1.21,0,0,1,131,55h-.88v-1a3.1,3.1,0,0,1-2.64,1.28,3.56,3.56,0,0,1-2.78-1.34,5.28,5.28,0,0,1,0-6.58A3.53,3.53,0,0,1,127.5,46a3.08,3.08,0,0,1,2.64,1.28Zm-3.85,6.17a2.07,2.07,0,0,0,1.6.69,2.1,2.1,0,0,0,1.61-.69,2.8,2.8,0,0,0,0-3.56,2.11,2.11,0,0,0-1.61-.7,2.08,2.08,0,0,0-1.6.7,2.8,2.8,0,0,0,0,3.56Z"/><path class="cls-2" d="M80,46a3.56,3.56,0,0,1,2.8,1.34,5.28,5.28,0,0,1,0,6.58A3.56,3.56,0,0,1,80,55.21a3,3,0,0,1-2.62-1.28v1h-1a1.08,1.08,0,0,1-1.08-1.08V43.76a1.08,1.08,0,0,1,1.08-1.08h1v4.55A3,3,0,0,1,80,46Zm-2,6.41a2.09,2.09,0,0,0,1.61.69,2.12,2.12,0,0,0,1.61-.69,2.8,2.8,0,0,0,0-3.56,2.13,2.13,0,0,0-1.61-.7,2.1,2.1,0,0,0-1.61.7,2.83,2.83,0,0,0,0,3.56Z"/><path class="cls-2" d="M93.34,43.84V45H90.28v8.62A1.35,1.35,0,0,1,88.93,55H88V45H85V43.84a1.16,1.16,0,0,1,1.16-1.16h6A1.17,1.17,0,0,1,93.34,43.84Z"/><path class="cls-2" d="M110.69,53.87a4.12,4.12,0,0,1-6.08,0,5,5,0,0,1,0-6.58,4.12,4.12,0,0,1,6.08,0,5,5,0,0,1,0,6.58Zm-4.6-1.55a2,2,0,0,0,1.56.68,2.06,2.06,0,0,0,1.57-.68,2.72,2.72,0,0,0,0-3.48,2.06,2.06,0,0,0-1.57-.68,2,2,0,0,0-1.56.68,2.72,2.72,0,0,0,0,3.48Z"/><path class="cls-2" d="M120.68,48.6a3.06,3.06,0,0,1,1.49,2.8A3.45,3.45,0,0,1,118.64,55h-3.38a1.43,1.43,0,0,1-1.43-1.42V44.1a1.43,1.43,0,0,1,1.43-1.42h3a3.4,3.4,0,0,1,2.46,1,3.31,3.31,0,0,1,1,2.48A3.08,3.08,0,0,1,120.68,48.6ZM118.3,45h-2.23v2.7h2.23a1.11,1.11,0,0,0,.87-.39,1.38,1.38,0,0,0,.35-1,1.45,1.45,0,0,0-.34-1A1.11,1.11,0,0,0,118.3,45Zm.34,7.75a1.19,1.19,0,0,0,.94-.41,1.63,1.63,0,0,0,0-2.07,1.23,1.23,0,0,0-.94-.41h-2.57V52.7Z"/><path class="cls-2" d="M141.34,53.87a4.12,4.12,0,0,1-6.08,0,5,5,0,0,1,0-6.58,4.12,4.12,0,0,1,6.08,0,5,5,0,0,1,0,6.58Zm-4.6-1.55a2,2,0,0,0,1.56.68,2.06,2.06,0,0,0,1.57-.68,2.72,2.72,0,0,0,0-3.48,2.06,2.06,0,0,0-1.57-.68,2,2,0,0,0-1.56.68,2.72,2.72,0,0,0,0,3.48Z"/></g></g></svg>