<svg xmlns="http://www.w3.org/2000/svg" viewBox="0 0 168.75 56.86"><defs><style>.cls-1{fill:#565656;}.cls-2{fill:#e71;}.cls-3{fill:#5a5a5a;stroke:#5a5a5a;stroke-miterlimit:10;stroke-width:0.5px;}</style></defs><title>logo-10.16</title><g id="图层_2" data-name="图层 2"><g id="图层_1-2" data-name="图层 1"><path class="cls-1" d="M31.4,53.09a1.74,1.74,0,0,0,2.38.58l0,0a21.92,21.92,0,0,0,10-18.4A21.64,21.64,0,0,0,37.56,19.9h0l3.73-8.72h0l2,.87a1.73,1.73,0,0,0,2.28-.89,1.67,1.67,0,0,0,.14-.53,1.71,1.71,0,0,0-1-1.75l-3.6-1.63a1.73,1.73,0,0,0-1.34,0,1.7,1.7,0,0,0-1,.93L33.91,19.62a1.75,1.75,0,0,0,.43,2,14.17,14.17,0,0,1,1.28,1.29A18.45,18.45,0,0,1,34.27,49,18.8,18.8,0,0,1,32,50.73a1.74,1.74,0,0,0-.55,2.36Z"/><path class="cls-1" d="M20.15,55a1.72,1.72,0,0,1-1.57,1.87,1.55,1.55,0,0,1-.43,0,21.93,21.93,0,0,1,2.61-43.5h0l3.83-8.88h0L22.3,3.34A1.73,1.73,0,0,1,23.57.12l.19.09L27.59,2a1.73,1.73,0,0,1,.85,2.25L23.5,15.73a1.74,1.74,0,0,1-1.59,1,18.47,18.47,0,0,0-3.2,36.66,1.73,1.73,0,0,1,1.44,1.55Z"/><circle class="cls-1" cx="27.97" cy="54.48" r="1.69"/><circle class="cls-2" cx="16.19" cy="28.15" r="2.03"/><circle class="cls-2" cx="27.43" cy="28.15" r="2.03"/><circle class="cls-2" cx="37.03" cy="3.63" r="2.37"/><circle class="cls-2" cx="31.03" cy="9.02" r="1.79"/><circle class="cls-2" cx="31.25" cy="17.44" r="1.26"/><path class="cls-2" d="M30.84,33.61a11.86,11.86,0,0,0-3.09.93,23.42,23.42,0,0,1-19.56.61h0a13.9,13.9,0,0,0,27.78,1c0-.23,0-.46,0-.69a13,13,0,0,0-.1-1.65h0A16.7,16.7,0,0,0,30.84,33.61Z"/><path class="cls-1" d="M76.29,25.7H67.64l3.22-7.86a1.23,1.23,0,0,0-.6-1.57h0a1.14,1.14,0,0,0-1.52.54s0,0,0,.05l-3.61,8.86H53.56a1.27,1.27,0,1,0,0,2.54H76.29a1.27,1.27,0,0,0,0-2.54Z"/><path class="cls-1" d="M74.73,34.09l-8.35-4.65a3.58,3.58,0,0,0-3.66,0L54.39,34a1.26,1.26,0,0,0,1.23,2.2h0l8.18-4.55a1.34,1.34,0,0,1,1.53,0l8.07,4.49a1.34,1.34,0,0,0,1.81-.41A1.25,1.25,0,0,0,74.73,34.09Z"/><path class="cls-1" d="M61,22.59l-2.9-3.07a1.23,1.23,0,0,0-1.72-.07.46.46,0,0,0-.07.07h0a1.22,1.22,0,0,0,0,1.65l2.88,3.07a1.22,1.22,0,0,0,1.73.05l.05-.05A1.21,1.21,0,0,0,61,22.59Z"/><path class="cls-2" d="M59.34,15.29h0a1.22,1.22,0,0,0,0,1.65l3.17,3.46a1.21,1.21,0,0,0,1.71.07l.07-.07h0a1.22,1.22,0,0,0,0-1.65l-3.16-3.46a1.21,1.21,0,0,0-1.71-.08A.6.6,0,0,0,59.34,15.29Z"/><path class="cls-1" d="M88.83,27.75A1.25,1.25,0,0,0,87.22,27l0,0-3.84,1.73a1.25,1.25,0,0,0-.72,1.57h0a1.25,1.25,0,0,0,1.6.78l.06,0,3.85-1.73A1.26,1.26,0,0,0,88.83,27.75Z"/><path class="cls-1" d="M90.37,10.71a2.76,2.76,0,0,0-2.16-1H84a1.27,1.27,0,1,0,0,2.54h4.25c.49,0,.73.27.73.8v6.1a1.17,1.17,0,0,0,2.34,0h0V13A3.22,3.22,0,0,0,90.37,10.71Z"/><path class="cls-1" d="M91.16,22.46a2.76,2.76,0,0,0-2.16-1H86.22c-.37,0-.56-.2-.56-.6V15a1.17,1.17,0,1,0-2.34,0h0v5.84a3.15,3.15,0,0,0,.85,2.22,2.68,2.68,0,0,0,2,.92H89c.49,0,.73.27.73.8V33c0,.53-.24.8-.73.8H84.59a1.27,1.27,0,0,0-1.27,1.27h0a1.27,1.27,0,0,0,1.27,1.27H89a2.82,2.82,0,0,0,2.16-1A3.3,3.3,0,0,0,92.07,33V24.81A3.23,3.23,0,0,0,91.16,22.46Z"/><path class="cls-1" d="M108.47,18.59l-5-6c-.71-.84-1.38-1.72-2.06-2.58a1.81,1.81,0,0,0-1.24-.86c-.8,0-1.45,1.1-1.94,1.76l-6,7.28a1.21,1.21,0,0,0,.18,1.62h0a1.22,1.22,0,0,0,1.71-.12l0-.07,5.88-7.12h.17l6.3,7.54a1.21,1.21,0,0,0,2-1.44Z"/><path class="cls-1" d="M106.88,33.92a1,1,0,0,1,.82.39,1.2,1.2,0,0,1,.35.88,1.28,1.28,0,0,1-.35.89,1,1,0,0,1-.82.39H94.27a1,1,0,0,1-.82-.39,1.24,1.24,0,0,1-.35-.89,1.16,1.16,0,0,1,.35-.88,1,1,0,0,1,.82-.39Z"/><path class="cls-1" d="M97,18.81a1.27,1.27,0,1,0,0,2.54h6.12a1.27,1.27,0,0,0,1.31-1.23V20h0a1.27,1.27,0,0,0-1.27-1.27h0Z"/><path class="cls-1" d="M115.06,18.16h0a1.18,1.18,0,0,0-1.21,1.15v0l.08,8.31a1.19,1.19,0,0,0,2.37.22.81.81,0,0,0,0-.22l-.08-8.31A1.17,1.17,0,0,0,115.06,18.16Z"/><path class="cls-1" d="M53.49,10.84h0A1.19,1.19,0,0,0,52.27,12v5a1.19,1.19,0,1,0,2.38,0V12A1.19,1.19,0,0,0,53.49,10.84Z"/><path class="cls-1" d="M123.35,8.9a1.18,1.18,0,0,0-1.56.58l0,.06-2.42,6.1a1.2,1.2,0,0,0,.6,1.52h0a1.21,1.21,0,0,0,1.6-.58.14.14,0,0,1,0-.06l2.41-6.1A1.19,1.19,0,0,0,123.35,8.9Z"/><path class="cls-1" d="M133.25,22.52h-4.6V19.73h3.27a1.27,1.27,0,1,0,0-2.54h-7l.16-.43a1.17,1.17,0,0,0-2.19-.8l-1.38,3.82a1.18,1.18,0,0,0,2.21.83v0l.32-.85h2.31v2.79h-4.88a1.27,1.27,0,0,0,0,2.54h4.83v3.67a1.17,1.17,0,0,0,1.17,1.17h0a1.17,1.17,0,0,0,1.17-1.17V25h4.6a1.27,1.27,0,1,0,0-2.54Z"/><path class="cls-1" d="M132.72,26.14a1.17,1.17,0,0,0-1.18,1.16h0v2.8c0,.4-.17.6-.52.6h-7c-.37,0-.56-.2-.56-.6v-2.8a1.17,1.17,0,0,0-1.17-1.17h0a1.17,1.17,0,0,0-1.17,1.17v2.8a3.15,3.15,0,0,0,.85,2.22,2.65,2.65,0,0,0,2,.92h7a2.56,2.56,0,0,0,2-.92,3.15,3.15,0,0,0,.85-2.22v-2.8A1.17,1.17,0,0,0,132.72,26.14Z"/><path class="cls-1" d="M136.87,11.85a3.28,3.28,0,0,0-2.46-1H125.8a1.27,1.27,0,1,0,0,2.54h8.61c.78,0,1.17.43,1.17,1.28V32.59c0,.84-.39,1.27-1.17,1.27h-5a1.27,1.27,0,0,0-1.27,1.27h0a1.27,1.27,0,0,0,1.27,1.27h5A3.32,3.32,0,0,0,137,35.26a3.93,3.93,0,0,0,.9-2.67V14.65A3.85,3.85,0,0,0,136.87,11.85Z"/><circle class="cls-2" cx="115.07" cy="12" r="1.54"/><circle class="cls-1" cx="115.07" cy="34.91" r="1.54"/><path class="cls-1" d="M76,12a3.26,3.26,0,0,0-2.49-1.11h-7.7V9.49a1.23,1.23,0,0,0-1.24-1.24h0a1.24,1.24,0,0,0-1.24,1.24h0v1.38H56.42a1.27,1.27,0,0,0,0,2.54h17a1,1,0,0,1,.82.38,1.2,1.2,0,0,1,.35.89V17A1.2,1.2,0,0,0,77,17V14.68A3.84,3.84,0,0,0,76,12Z"/><path class="cls-1" d="M107,25.8a.94.94,0,0,0-1.27.17l-1.9,2.39a.3.3,0,0,1-.42.06l-.06-.06L101.42,26A.92.92,0,1,0,100,27.13l2.55,3.22a1.31,1.31,0,0,0,1,.5h0a1.36,1.36,0,0,0,1.08-.5l2.55-3.22a.94.94,0,0,0-.15-1.31Z"/><path class="cls-2" d="M96.65,31.28a3,3,0,1,1,3-3A3,3,0,0,1,96.65,31.28Zm0-4.36A1.32,1.32,0,1,0,98,28.24,1.32,1.32,0,0,0,96.65,26.92Z"/><path class="cls-2" d="M54.5,52.69h4.33V55H53.67a1.4,1.4,0,0,1-1.4-1.4h0V44.12a1.4,1.4,0,0,1,1.4-1.4h.83Z"/><path class="cls-2" d="M66.31,46.23h.88a1.2,1.2,0,0,1,1.21,1.2V53.8A1.21,1.21,0,0,1,67.22,55h-.91V54a3.09,3.09,0,0,1-2.64,1.28A3.54,3.54,0,0,1,60.89,54a5.26,5.26,0,0,1,0-6.58A3.52,3.52,0,0,1,63.67,46a3.06,3.06,0,0,1,2.64,1.28ZM62.45,52.4a2.1,2.1,0,0,0,1.61.69,2.13,2.13,0,0,0,1.61-.69,2.8,2.8,0,0,0,0-3.56,2.14,2.14,0,0,0-1.61-.7,2.11,2.11,0,0,0-1.61.7A2.83,2.83,0,0,0,62.45,52.4Z"/><path class="cls-2" d="M94.82,46.23h.89a1.2,1.2,0,0,1,1.2,1.2V53.8A1.21,1.21,0,0,1,95.73,55h-.91V54a3.05,3.05,0,0,1-2.64,1.28A3.55,3.55,0,0,1,89.41,54a5.26,5.26,0,0,1,0-6.58A3.51,3.51,0,0,1,92.18,46a3.05,3.05,0,0,1,2.64,1.28ZM91,52.4a2.08,2.08,0,0,0,1.6.69,2.1,2.1,0,0,0,1.61-.69,2.8,2.8,0,0,0,0-3.56,2.19,2.19,0,0,0-3.21,0A2.83,2.83,0,0,0,91,52.4Z"/><path class="cls-2" d="M125.47,46.23h.89a1.2,1.2,0,0,1,1.2,1.2V53.8a1.21,1.21,0,0,1-1.2,1.21h-.89V54a3.09,3.09,0,0,1-2.64,1.28A3.55,3.55,0,0,1,120.06,54a5.26,5.26,0,0,1,0-6.58A3.48,3.48,0,0,1,122.83,46a3.05,3.05,0,0,1,2.64,1.28Zm-3.85,6.17a2.08,2.08,0,0,0,1.6.69,2.1,2.1,0,0,0,1.61-.69,2.8,2.8,0,0,0,0-3.56,2.19,2.19,0,0,0-3.21,0A2.83,2.83,0,0,0,121.62,52.4Z"/><path class="cls-2" d="M75.33,46a3.52,3.52,0,0,1,2.79,1.34,5.24,5.24,0,0,1,0,6.58,3.55,3.55,0,0,1-2.79,1.34A3,3,0,0,1,72.7,54v1h-1a1.08,1.08,0,0,1-1.08-1.08h0V43.8a1.08,1.08,0,0,1,1.08-1.08h1v4.55A3,3,0,0,1,75.33,46Zm-2,6.41a2.22,2.22,0,0,0,3.14.08l.08-.08a2.8,2.8,0,0,0,0-3.56,2.2,2.2,0,0,0-3.11-.11l-.11.11A2.83,2.83,0,0,0,73.33,52.45Z"/><path class="cls-2" d="M88.67,43.88V45H85.61v8.62A1.34,1.34,0,0,1,84.31,55h-.94V45h-3V43.88a1.16,1.16,0,0,1,1.16-1.16h6A1.16,1.16,0,0,1,88.67,43.88Z"/><path class="cls-2" d="M106,53.91a4,4,0,0,1-6,0,5,5,0,0,1,0-6.58,4,4,0,0,1,6,.05A5,5,0,0,1,106,54Zm-4.61-1.55A2,2,0,0,0,103,53a2.07,2.07,0,0,0,1.57-.68,2.72,2.72,0,0,0,0-3.48A2.07,2.07,0,0,0,103,48.2a2,2,0,0,0-1.56.68A2.74,2.74,0,0,0,101.42,52.36Z"/><path class="cls-2" d="M116,48.64a3.07,3.07,0,0,1,1.49,2.8,3.43,3.43,0,0,1-1,2.57A3.51,3.51,0,0,1,114,55h-3.39a1.43,1.43,0,0,1-1.42-1.42V44.14a1.43,1.43,0,0,1,1.42-1.42h3a3.41,3.41,0,0,1,2.45,1,3.3,3.3,0,0,1,1,2.48A3.11,3.11,0,0,1,116,48.64ZM113.64,45H111.4v2.7h2.24a1.12,1.12,0,0,0,.86-.39,1.35,1.35,0,0,0,.35-1,1.4,1.4,0,0,0-.34-1A1.09,1.09,0,0,0,113.64,45Zm.34,7.7a1.21,1.21,0,0,0,.94-.41,1.62,1.62,0,0,0,0-2.07,1.21,1.21,0,0,0-.94-.41H111.4v2.89Z"/><path class="cls-2" d="M136.68,53.91a4,4,0,0,1-6,0,5,5,0,0,1,0-6.58,4,4,0,0,1,6,0A5,5,0,0,1,136.68,53.91Zm-4.61-1.55a2.15,2.15,0,0,0,3,.1l.1-.1a2.72,2.72,0,0,0,0-3.48,2.14,2.14,0,0,0-3-.11l-.11.11A2.74,2.74,0,0,0,132.07,52.36Z"/><path class="cls-3" d="M147,10.57a.4.4,0,0,1-.4.39h0a.4.4,0,0,1-.39-.39V9.28a.4.4,0,0,1,.39-.39h0a.39.39,0,0,1,.4.39Zm.7,9a1.51,1.51,0,0,1-1.38-.92,1.27,1.27,0,0,1-.12-.59V12.11a.39.39,0,0,1,.39-.39h0a.39.39,0,0,1,.4.39v5.94a.69.69,0,0,0,.2.5.71.71,0,0,0,.5.2h7.94a.39.39,0,0,1,.39.39v0a.4.4,0,0,1-.39.39Zm2.86-5.71a7.69,7.69,0,0,1-.55,2.22,7,7,0,0,1-1.32,2,.41.41,0,0,1-.28.13.42.42,0,0,1-.28-.12h0a.39.39,0,0,1,0-.55,6.16,6.16,0,0,0,1.53-2.85c0-.25.09-.52.12-.8h-1.38a.41.41,0,0,1-.4-.4v0a.4.4,0,0,1,.4-.4h3.25V11h-2.79a.4.4,0,0,1-.35-.56L149,9.12a.41.41,0,0,1,.52-.22h0a.4.4,0,0,1,.19.52l-.31.73h2.14v-1a.41.41,0,0,1,.39-.4h0a.41.41,0,0,1,.39.4v1h2.88a.39.39,0,0,1,.4.39v0a.41.41,0,0,1-.4.39h-2.88v2h3.17a.4.4,0,0,1,.4.4v0a.41.41,0,0,1-.4.4H154.1v2.82a.67.67,0,0,0,.19.47.7.7,0,0,0,.5.2h.69a.39.39,0,0,1,.39.4h0a.38.38,0,0,1-.39.39h-.69a1.46,1.46,0,0,1-1.39-.9,1.62,1.62,0,0,1-.12-.57V13.83h-2.76Z"/><path class="cls-3" d="M157.6,15.57a1.24,1.24,0,0,1,.14-.58,1.54,1.54,0,0,1,.79-.8,1.63,1.63,0,0,1,.59-.12h2.07a1.69,1.69,0,0,1,.6.12,1.52,1.52,0,0,1,.91,1.38v2.48a1.59,1.59,0,0,1-.12.59,1.44,1.44,0,0,1-.79.8,1.69,1.69,0,0,1-.6.12h-2.07a1.63,1.63,0,0,1-.59-.12,1.44,1.44,0,0,1-.79-.8,1.28,1.28,0,0,1-.14-.59Zm.82,2.48a.65.65,0,0,0,.22.5.61.61,0,0,0,.48.2h2.07a.61.61,0,0,0,.48-.2.7.7,0,0,0,.2-.5V15.57a.67.67,0,0,0-.2-.48.58.58,0,0,0-.48-.21h-2.07a.58.58,0,0,0-.48.21.62.62,0,0,0-.22.48Zm.14-7.76a1.72,1.72,0,0,1,.12-.59,1.6,1.6,0,0,1,.8-.8,1.68,1.68,0,0,1,.6-.11h6a1.62,1.62,0,0,1,.58.11,1.44,1.44,0,0,1,.79.8,1.38,1.38,0,0,1,.14.59v1.34a1.28,1.28,0,0,1-.14.59,1.48,1.48,0,0,1-1.37.91h-6a1.51,1.51,0,0,1-1.4-.91,1.59,1.59,0,0,1-.12-.59Zm.82,1.34a.69.69,0,0,0,.19.5.69.69,0,0,0,.51.19h6a.69.69,0,0,0,.49-.19.7.7,0,0,0,.2-.5V10.29a.68.68,0,0,0-.2-.49.7.7,0,0,0-.49-.2h-6a.69.69,0,0,0-.51.2.67.67,0,0,0-.19.49Zm4,3.94a1.23,1.23,0,0,1,.12-.58,1.54,1.54,0,0,1,.79-.8,1.62,1.62,0,0,1,.58-.12H167a1.58,1.58,0,0,1,.58.12,1.47,1.47,0,0,1,.79.8,1.24,1.24,0,0,1,.13.58v2.48a1.28,1.28,0,0,1-.13.59,1.38,1.38,0,0,1-.79.8,1.58,1.58,0,0,1-.58.12h-2.09a1.62,1.62,0,0,1-.58-.12,1.44,1.44,0,0,1-.79-.8,1.27,1.27,0,0,1-.12-.59Zm.82,2.48a.66.66,0,0,0,.2.5.6.6,0,0,0,.47.2H167a.63.63,0,0,0,.48-.2.72.72,0,0,0,.22-.5V15.57a.69.69,0,0,0-.22-.48.61.61,0,0,0-.48-.21h-2.09a.58.58,0,0,0-.47.21.63.63,0,0,0-.2.48Z"/><path class="cls-3" d="M150.22,29.12a.4.4,0,0,1,.4.4h0a.4.4,0,0,1-.4.4H147v6a.68.68,0,0,0,.2.49.71.71,0,0,0,.48.2h2.53a.4.4,0,0,1,.4.4h0a.4.4,0,0,1-.4.4h-2.53a1.52,1.52,0,0,1-.57-.11,1.48,1.48,0,0,1-.91-1.39V27a.38.38,0,0,1,.38-.39h0a.39.39,0,0,1,.4.39v2.12Zm2.32,1.67a.17.17,0,0,1-.11,0v5.05a.67.67,0,0,0,.19.49.69.69,0,0,0,.51.2h2.62a.39.39,0,0,1,.4.4h0a.39.39,0,0,1-.4.4h-2.62a1.59,1.59,0,0,1-.59-.11,1.56,1.56,0,0,1-.81-.81,1.62,1.62,0,0,1-.12-.58V27a.41.41,0,0,1,.4-.39h0a.4.4,0,0,1,.4.39v3l3.21-1.56a.38.38,0,0,1,.52.19h0a.38.38,0,0,1-.18.53Z"/><path class="cls-3" d="M159.54,27.49a.39.39,0,0,1,.68.27V37a.39.39,0,0,1-.4.4h0a.39.39,0,0,1-.39-.4V28.81c-.16.16-.31.31-.45.48s-.1.12-.16.18a.39.39,0,0,1-.28.13.36.36,0,0,1-.29-.11.39.39,0,0,1,0-.55Zm3.55,7a3.12,3.12,0,0,1-.49,1.83,3,3,0,0,1-1,.87.36.36,0,0,1-.32,0,.38.38,0,0,1-.24-.22.4.4,0,0,1,.16-.5,1.9,1.9,0,0,0,.68-.64,2.38,2.38,0,0,0,.36-1.37V31.36a.39.39,0,0,1,.4-.4h0a.39.39,0,0,1,.4.4Zm-.65-6.61.29-.42a1.36,1.36,0,0,1,.7-.5,1.66,1.66,0,0,1,.53-.07h1.86a1.79,1.79,0,0,1,.53.07,1.36,1.36,0,0,1,.7.5,4.23,4.23,0,0,1,.23.38l0,0,1.05,1.69a.4.4,0,0,1-.12.54l0,0a.38.38,0,0,1-.54-.14l-1-1.69a2.31,2.31,0,0,0-.35-.43.66.66,0,0,0-.46-.16H164a.68.68,0,0,0-.48.16,3.24,3.24,0,0,0-.33.42l-1,1.69a.38.38,0,0,1-.54.14h0a.39.39,0,0,1-.13-.54Zm4.95,9a.39.39,0,0,1-.39.4h0a.39.39,0,0,1-.39-.4V31.39A.39.39,0,0,1,167,31h0a.4.4,0,0,1,.39.39Z"/><path class="cls-3" d="M155.79,45.07a.4.4,0,0,1,.4.39v0a.39.39,0,0,1-.4.39h-3.3v.82h3.3a.39.39,0,0,1,.4.39v0a.39.39,0,0,1-.4.39h-3.3v.85h3.3a.39.39,0,0,1,.4.4v0a.39.39,0,0,1-.4.4h-3.3V50h3.3a.39.39,0,0,1,.4.4h0a.39.39,0,0,1-.4.4h-7.52a.42.42,0,0,1-.4.33h0a.41.41,0,0,1-.4-.39V45.81l-.7.47a.37.37,0,0,1-.54-.12l0,0a.4.4,0,0,1,.11-.54l1.36-.88a.39.39,0,0,1,.61.32v0h3.42v-.29a.4.4,0,0,1,.39-.4h0a.4.4,0,0,1,.39.4v.29ZM152,54.85a.4.4,0,0,1-.4.4h0a.39.39,0,0,1-.4-.4v-2a6.28,6.28,0,0,1-.58.47,9.25,9.25,0,0,1-1.21.73,11.07,11.07,0,0,1-1.35.61c-.35.15-.69.27-1,.39a.39.39,0,0,1-.51-.25v0a.36.36,0,0,1,.25-.47l1-.38a13.49,13.49,0,0,0,1.27-.56,8.34,8.34,0,0,0,1.12-.68,1.84,1.84,0,0,0,.22-.17H147a.39.39,0,0,1-.4-.39v0a.39.39,0,0,1,.4-.4h4.17V51.5a.39.39,0,0,1,.4-.39h0a.4.4,0,0,1,.4.39v.22h4.15a.41.41,0,0,1,.4.4v0a.41.41,0,0,1-.4.39H153l3.44,1.75a.38.38,0,0,1,.17.53v0a.38.38,0,0,1-.53.17L152,52.9Zm-3.73-8.15h3.42v-.82h-3.42Zm0,1.65h3.42V47.5h-3.42Zm0,1.63h3.42v-.81h-3.42Z"/><path class="cls-3" d="M163.74,54.76a.39.39,0,0,1-.4.39h0a.39.39,0,0,1-.4-.39V50.2h-.26a.25.25,0,0,1,0,.12,8.68,8.68,0,0,1-.6,1.13A12.61,12.61,0,0,1,159.9,54c-.3.29-.61.58-1,.85a.38.38,0,0,1-.29.09.35.35,0,0,1-.26-.15l0,0a.4.4,0,0,1,0-.54,19.14,19.14,0,0,0,2-1.94,9.44,9.44,0,0,0,1.39-2.08h-3.23a.39.39,0,0,1-.4-.39v0a.39.39,0,0,1,.4-.39h4.36v-.21a.4.4,0,0,1,.4-.39h0a.4.4,0,0,1,.4.39v.21h4.36a.39.39,0,0,1,.4.39v0a.39.39,0,0,1-.4.39h-3l3.25,4.08a.4.4,0,0,1-.07.56l0,0a.4.4,0,0,1-.55-.08l-3.52-4.43a.27.27,0,0,1-.08-.16h-.37Zm3.91-10.21a.39.39,0,0,1,.4.36v0a.33.33,0,0,1-.09.28.36.36,0,0,1-.28.12l-8.63.39a.38.38,0,0,1-.41-.37v0a.4.4,0,0,1,.37-.41Zm-7.16,3.6a.39.39,0,0,1-.26.49h0a.37.37,0,0,1-.49-.25l-.52-1.6a.38.38,0,0,1,.26-.49h0a.41.41,0,0,1,.5.27Zm3.29-.48a.38.38,0,0,1-.26.5.41.41,0,0,1-.49-.25l-.47-1.45a.39.39,0,0,1,.26-.5.38.38,0,0,1,.5.25Zm2.55.91a.4.4,0,0,1-.57.06h0a.4.4,0,0,1-.07-.55,9.26,9.26,0,0,0,1.09-1.81.39.39,0,0,1,.5-.2h0a.5.5,0,0,1,.21.22.33.33,0,0,1,0,.32A10.38,10.38,0,0,1,166.33,48.58Z"/></g></g></svg>