<svg xmlns="http://www.w3.org/2000/svg" viewBox="0 0 15.82 16"><defs><style>.cls-1{fill:#fff;}</style></defs><title>icon-电话-白</title><g id="图层_2" data-name="图层 2"><g id="图层_1-2" data-name="图层 1"><path class="cls-1" d="M12.5,16a6.43,6.43,0,0,1-2.87-.8l-1-.54a28.47,28.47,0,0,1-4.7-4H4C2.42,9.06-.15,5.64,0,3A3,3,0,0,1,1.15.78,3,3,0,0,1,3,0a3,3,0,0,1,2.3,1.48l.12.16c.84,1.15,1.8,2.45.34,3.93-.18.21-.19,1.2,1.82,3.13,1.44,1.38,2.22,1.53,2.48,1.53a.38.38,0,0,0,.2,0,2,2,0,0,1,1.53-.72,4.86,4.86,0,0,1,2.68,1.22c1.37,1.05,1.7,2.24,1,3.53a3.5,3.5,0,0,1-1.26,1.35A3.18,3.18,0,0,1,12.5,16ZM3,1.37a1.71,1.71,0,0,0-1,.48,1.66,1.66,0,0,0-.63,1.27c-.13,2,2.07,5,3.58,6.59H5a27.22,27.22,0,0,0,4.38,3.75l.94.54a3.55,3.55,0,0,0,3.23.38,2.3,2.3,0,0,0,.74-.84c.33-.58.34-1-.61-1.76a3.88,3.88,0,0,0-1.84-.93.65.65,0,0,0-.53.27,1.53,1.53,0,0,1-1.2.48c-1,0-2.11-.64-3.43-1.91C5.05,8.17,4.28,6.84,4.32,5.75a1.63,1.63,0,0,1,.53-1.2c.53-.55.41-.82-.52-2.1l-.12-.16C3.75,1.67,3.36,1.37,3,1.37Z"/></g></g></svg>