<svg xmlns="http://www.w3.org/2000/svg" viewBox="0 0 92.64 80.34"><defs><style>.cls-1{fill:#f5c270;}</style></defs><title>icon-良心价格</title><g id="图层_2" data-name="图层 2"><g id="图层_1-2" data-name="图层 1"><path class="cls-1" d="M68.63,4.38a15.14,15.14,0,0,0-21.3,0L46,5.64,44.58,4.38A14.54,14.54,0,0,0,33.92,0,14.53,14.53,0,0,0,23.27,4.38,14.54,14.54,0,0,0,18.89,15a14.49,14.49,0,0,0,4.38,10.64L45.2,47.86a1.25,1.25,0,0,0,1.5,0L68.63,25.69A14.53,14.53,0,0,0,73,15,14.54,14.54,0,0,0,68.63,4.38ZM52.53,23v2.28H48.34l-.15.25v1h4.34v2.31H48.19v4.45h-3.9V28.83H39.41V26.52h4.88v-1l-.15-.25H39.41V23h3.45l-5.39-9.64h4.45l4.32,8.32,4.35-8.32H55L49.62,23Z"/><path class="cls-1" d="M0,60H8.54V59H12.2v1h8.34v9.56q.38,3.28-3.84,3H3.58v4.59c0,.57.18.82.56.75H9.58v2.44H2.26Q-.17,80.42,0,78Zm3.57,2.72v2.15H16.89V62.71Zm0,7H16c.57.06.85-.22.85-.85V67.68H3.58Zm2.9,3.47h4.6l.75.75h5a.66.66,0,0,0,.66-.19l.38-.66H21l-1.68,2.72c-.19.44-.72.63-1.6.56H13.79l.85.94a1.28,1.28,0,0,0,1.12.47h5.16v2.44h-7a2.27,2.27,0,0,1-2.44-1.13Z"/><path class="cls-1" d="M24.67,76.68V59H28V77.52c.07,1.87-.81,2.78-2.62,2.72H23.54V77.43C24.36,77.49,24.73,77.24,24.67,76.68Zm4.41,1V59h3.28v17.9q0,.66.84.66h6.47v2.81H31.42C29.79,80.33,29,79.46,29.08,77.71Zm5-4.5V59h3.47V71.52c0,.44.28.66.85.66h1.31v3.28H36.48C34.73,75.58,33.92,74.83,34,73.21Zm6.85,5V59h3.37v17.9q-.09.66.75.57v2.9H43.33C41.7,80.33,40.89,79.61,40.89,78.18Z"/><path class="cls-1" d="M48,63.18h.57q.47.09.75-.57l1.4-3.56h3.56L53,62.8V80.24H49.51V66H48Zm6-.75h1.5q.38.09.75-.57l1.13-3h8.72l1.5,3.1a.68.68,0,0,0,.84.47h.84v2.71h-3A1.12,1.12,0,0,1,65,64.21L64,62H59.83L59,64.11a1.35,1.35,0,0,1-1.59,1H54Zm.1,15.28h.56c.25.06.37-.1.37-.47V66.36h3.38V78.18c.06,1.43-.47,2.12-1.59,2.06H54.11ZM68.73,66.36V80.24H65.54V66.36Z"/><path class="cls-1" d="M75.11,61v-2h3.18v2h3.1v.75h.37q.28.19.66-.66l.75-1.87h3.09l-.37.75h6.75v2.53L89,66.27l.56.47c.13.25.47.34,1,.28h2.06v2.62H88.89a1.18,1.18,0,0,1-1.22-.46l-.84-.75-.66.65a1.4,1.4,0,0,1-1.41.56H81.39V67h1.69c.43.06.71,0,.84-.28l.37-.38L82.7,64.77h3.47l2.16-2.16h-3.1l-.56,1.13a1.2,1.2,0,0,1-1.22.75H81v-.94H78.29v1.13H81.2v12c-.12.68.09,1,.66.84v2.16H80.45c-1.37.12-2-.41-1.78-1.6V67H78.2V80.24H75.11V67h-.47V77.61q.28,2.34-2.16,2.07H71.26V77.52h.47c.31.06.47-.13.47-.56V64.68H75V63.55H71.45V61Zm7,9.75H92.26V78q.28,2.43-2.43,2.25H82.14Zm6.94,5.91V73.3H85.14v4.41H88C88.83,77.89,89.2,77.55,89.08,76.68Z"/></g></g></svg>