<svg xmlns="http://www.w3.org/2000/svg" viewBox="0 0 77.17 57.5"><defs><style>.cls-1{fill:#dbb79e;}.cls-2{fill:#f9cfb3;}.cls-3{fill:#3d3b36;}.cls-4{fill:#bad1dd;}.cls-5{fill:#3d5872;}.cls-6{fill:#53666d;}.cls-7{fill:#586b72;}.cls-8{fill:#e4f4ff;}.cls-9{fill:#495b60;}.cls-10{fill:#455256;}.cls-11{fill:#fff;}.cls-12{fill:#00a0e9;}</style></defs><title>方案弹窗-客服</title><g id="图层_2" data-name="图层 2"><g id="图层_1-2" data-name="图层 1"><polygon class="cls-1" points="19.51 28.39 19.51 28.97 19.51 33.81 26.55 39.67 28.79 37.37 32.43 33.64 32.43 27.68 19.51 28.39"/><path class="cls-2" d="M37.21,18.25a3.54,3.54,0,0,0-.37-1.08,2.7,2.7,0,0,0-.66-.77c-.24-.18-.64-.27-.73-.53s.19-.94.22-1.23a4.28,4.28,0,0,0,0-1.13c-.25-1.85-2.16-3.11-3.95-3.74S28.44,6,26.61,6.58C24.79,6,20.77,6.43,19,7.06s-2.88,4.6-3.13,6.45c-.07.57.2,1.23.09,1.76s-.71.71-1.13,1c-.74.52-.51,1.24-.55,2a8.39,8.39,0,0,0,.86,4.37c.42.77,1,1,1.57,1.54s.53,1.82.77,2.59a4.33,4.33,0,0,0,.74,1.41c.71.89,1.94,1.3,2.75,2.1a8.93,8.93,0,0,0,2.5,2,5.25,5.25,0,0,0,2.31.26,5.28,5.28,0,0,0,2.32-.26,8.93,8.93,0,0,0,2.5-2c.81-.8,2-1.21,2.75-2.1a4.33,4.33,0,0,0,.74-1.41c.24-.77.13-2,.77-2.59s1.15-.77,1.57-1.54A7.1,7.1,0,0,0,37.21,18.25Z"/><path class="cls-3" d="M15.08,16.38a6.58,6.58,0,0,0,.91,2.2c.12-.71.32-1.43.38-2.15s0-1.22,0-1.84c.18-1.64,1.71-3.22,2.52-4.65A2.82,2.82,0,0,1,21.5,8.26a4,4,0,0,1,1.71.91A11.08,11.08,0,0,0,28,11.11c2,.31,6.32-.28,6.9,2.08a30.73,30.73,0,0,1,.38,5.43c0,.09,0,.21.12.24s.18-.1.22-.21a27.93,27.93,0,0,0,1.07-2.84,16.94,16.94,0,0,0,.2-2.25c.3-2.5.45-4.9-1.25-7a11.41,11.41,0,0,0-8.9-4.2c-3,0-7.28,1-9,3.38-3.2.68-3.34,5.57-3.09,7.82A24.25,24.25,0,0,0,15.08,16.38Z"/><path class="cls-4" d="M26.75,57.5l5.68-13.79-5.93-6h-.8s-6.24,5.95-6.19,6.38L25.67,57.5Z"/><path class="cls-5" d="M29.2,50.38,27.1,41.7a1.07,1.07,0,0,1,.12-.82l.8-1.36a.22.22,0,0,0-.06-.24L27,38.44a2.24,2.24,0,0,1-.58-.61c-.09-.18-.33-.58-.61-.41s-.32.38-.48.58a6,6,0,0,1-.59.53l-.83.75a.2.2,0,0,0-.05.24l.8,1.36a1.12,1.12,0,0,1,.12.82l-2.11,8.68a.28.28,0,0,0,0,.13l2.92,6.82a.26.26,0,0,0,.32.12.25.25,0,0,0,.31-.12l2.92-6.82A.15.15,0,0,0,29.2,50.38Z"/><path class="cls-6" d="M25.61,57.5l0-1.82L20.76,41.12l-2-6.12-.21.06-3.59,1C10.3,37.31,4.28,39.29,4.08,39.41S1.48,44,0,46.76V57.5Z"/><path class="cls-7" d="M51.73,57.5a.44.44,0,0,1,0-.1V46.45c-1.49-2.78-3.73-6.93-3.92-7S41.61,37.31,37,36l-3.58-1L33.19,35l-2.84,8.29L25.87,56.41v.13l-.28-.86,0,1.82Z"/><path class="cls-8" d="M32.52,32l-6.39,5.23a.27.27,0,0,1-.34,0L19.39,32,18,35.78l2.77,8.3,5-6.41a.27.27,0,0,1,.42,0l5,6.41L34,35.78Z"/><path class="cls-9" d="M14.32,41.64,23.41,57.5h5L37.6,41.64l-3.36-1.28,3.86-1.73A24.1,24.1,0,0,0,37,36l-3.58-1-3.06,8.23-1,2.65-3.6,9.62-3.23-9.62-1.78-4.82-2.25-6.06-3.59,1a25.83,25.83,0,0,0-1.1,2.59l3.86,1.73Z"/><path class="cls-10" d="M38.81,17c.5-3.41.5-8.42-2.1-12C34.76,2.23,30.48,0,26.08,0S17.4,2.23,15.45,4.94c-2.6,3.62-2.6,8.63-2.1,12-1.47.76-1.74,2.63-1.32,4.64s1.4,2.76,3.15,2.78a.57.57,0,0,0,.58-.69c-.4-1.84-1.52-7-1.53-7-.42-3.25-.34-7.55,2-10.81,1.78-2.45,5.88-4.36,9.83-4.5,4.42.14,8.05,2.05,9.83,4.5,2.36,3.26,2.45,7.56,2,10.81-.41,1.91-.82,3.78-1.21,5.62a7,7,0,0,1-1,2.42,6.8,6.8,0,0,1-2.06,2.05A11.27,11.27,0,0,1,31.59,28a3.34,3.34,0,0,0-1.87.33c-1,.47-1.55,1.15-1.37,1.57s1,.42,2,0a3.54,3.54,0,0,0,1.48-1.07,20.5,20.5,0,0,0,2.67-1.62,10.69,10.69,0,0,0,2.73-2.81,3,3,0,0,0,2.88-2.7C40.56,19.61,40.28,17.74,38.81,17Z"/><rect class="cls-11" x="48.44" y="6.31" width="28.73" height="14.56" rx="4.52" ry="4.52"/><polygon class="cls-11" points="51.14 26.2 58.28 16.79 51.78 16.79 51.14 26.2"/><circle class="cls-12" cx="55.37" cy="13.59" r="1.33"/><circle class="cls-12" cx="62.8" cy="13.59" r="1.33"/><circle class="cls-12" cx="70.24" cy="13.59" r="1.33"/></g></g></svg>