<svg xmlns="http://www.w3.org/2000/svg" viewBox="0 0 93.38 87.57"><defs><style>.cls-1{fill:#f5c270;}</style></defs><title>icon-原厂正品</title><g id="图层_2" data-name="图层 2"><g id="图层_1-2" data-name="图层 1"><path class="cls-1" d="M65.8,6.68c-.47,0-.92,0-1.37,0h0C52.71,6.7,47.54,1.33,47.5,1.28L46.33,0,45.15,1.28c0,.06-5.5,5.83-18.29,5.4l-3-.06V31c0,6.38,3.51,15.68,21.92,22.8l.58.22.57-.22C65.31,46.66,70.11,37.36,70.11,31V6.62Zm-9.47,29H36.5V33.12h1.81V21.91h3.27V33.12H45v-14H37V16.57H56v2.58H48.31v5.09H55.9V27H48.31v6.12h8Z"/><path class="cls-1" d="M1.12,83.92V66.29H21.75V69H15.28l-.19,1.12h6.66V79c.12,1.5-.56,2.15-2.06,2H15v4.21c.12,1.63-.56,2.38-2.06,2.25H9.84V84.76h1.22q.75.09.66-.66V80.92H5.25V70.13h6.28L11.81,69H4.41V84.67c.12,1.87-.54,2.71-2,2.53H0V84.57H.56C.94,84.63,1.12,84.42,1.12,83.92Zm3.76,3.46V84.67h.56q.38.09.75-.66L7,82h3.19L8.81,85.88a2,2,0,0,1-2.25,1.5ZM18.47,73H8.53v1.31h9.94Zm0,4.68V77H8.53v1.31h9.19C18.22,78.35,18.47,78.14,18.47,77.63Zm-1,8.82-1.32-4.32h3.19L20,84.2c.12.5.37.72.75.65h.75v2.63H19.22C18.16,87.48,17.56,87.13,17.44,86.45Z"/><path class="cls-1" d="M25.59,66.2H45.94v3.47H29.53V84.2c.13,2-.59,2.9-2.15,2.72H24.56V83.63h.66c.25.07.37-.09.37-.46Z"/><path class="cls-1" d="M69.47,66.76v2.81H61.12V75.1h8.26v3H61.12v6.66h8.72v2.81H48.28V84.76h2V72.57h3.56V84.76h3.75V69.57H48.84V66.76Z"/><path class="cls-1" d="M72.84,87.2V77.26h9.75V85q-.09,2.14-1.68,2.25Zm.47-10.6v-10H93v7.69a2.44,2.44,0,0,1-2.44,2.34Zm6.1,3.75H76v4h3c.25.07.38-.09.38-.46ZM89.53,69.57H77V73.7H88.69q.84.09.84-.66ZM83.44,87.29V77.35h9.94v8c-.07,1.25-.66,1.91-1.79,2Zm6.65-6.84H86.62v3.93h3.1c.25.07.37-.06.37-.37Z"/></g></g></svg>