<svg xmlns="http://www.w3.org/2000/svg" viewBox="0 0 100 100"><defs><style>.cls-1{fill:#fff;}.cls-2{fill:#565656;}.cls-3{fill:#e71;}.cls-4{fill:none;stroke:#e71;stroke-miterlimit:10;stroke-width:0.85px;}</style></defs><title>资源 1</title><g id="图层_2" data-name="图层 2"><g id="图层_1-2" data-name="图层 1"><circle class="cls-1" cx="50" cy="50" r="50"/><path class="cls-2" d="M55.76,52.1a1.17,1.17,0,0,0,1.62.37,14.8,14.8,0,0,0,6.75-12.41,14.63,14.63,0,0,0-4.22-10.34v0l2.52-5.88a0,0,0,0,1,0,0l1.34.58a1.17,1.17,0,1,0,.93-2.14L62.29,21.2a1.16,1.16,0,0,0-1.54.61l-3.31,7.73a1.19,1.19,0,0,0,.29,1.32,11.9,11.9,0,0,1,.87.87A12.43,12.43,0,0,1,56.12,50.5a1.17,1.17,0,0,0-.36,1.6Z"/><path class="cls-2" d="M48.17,53.37a1.17,1.17,0,0,1-1.37,1.25A14.78,14.78,0,0,1,48.57,25.3a0,0,0,0,0,0,0l2.58-6a0,0,0,0,0,0,0l-1.53-.72a1.14,1.14,0,0,1-.67-1.2,1.16,1.16,0,0,1,1.65-.91l2.58,1.21a1.18,1.18,0,0,1,.58,1.52l-3.34,7.73a1.15,1.15,0,0,1-1.07.7A12.45,12.45,0,0,0,47.2,52.32a1.18,1.18,0,0,1,1,1Z"/><circle class="cls-2" cx="53.44" cy="53.03" r="1.14"/><circle class="cls-3" cx="45.5" cy="35.29" r="1.37"/><circle class="cls-3" cx="53.08" cy="35.29" r="1.37"/><circle class="cls-3" cx="59.55" cy="18.75" r="1.6"/><circle class="cls-3" cx="55.5" cy="22.39" r="1.2"/><circle class="cls-3" cx="55.65" cy="28.06" r="0.85"/><path class="cls-3" d="M55.37,39a7.56,7.56,0,0,0-2.08.62A15.73,15.73,0,0,1,40.11,40a0,0,0,0,0,0,0,9.37,9.37,0,1,0,18.73.16,8.27,8.27,0,0,0-.07-1.11h0A11.15,11.15,0,0,0,55.37,39Z"/><path class="cls-2" d="M40.76,69.14H36.51l1.58-3.86a.61.61,0,0,0-.29-.77h0a.56.56,0,0,0-.76.29l-1.77,4.35H29.59a.63.63,0,0,0,0,1.25H40.76a.63.63,0,0,0,0-1.25Z"/><path class="cls-2" d="M40,73.27,35.89,71a1.76,1.76,0,0,0-1.8,0L30,73.26a.62.62,0,0,0-.26.81.63.63,0,0,0,.86.28l4-2.24a.65.65,0,0,1,.75,0l4,2.21a.67.67,0,0,0,.89-.21A.61.61,0,0,0,40,73.27Z"/><path class="cls-2" d="M33.22,67.61l-1.41-1.5a.6.6,0,0,0-.88,0h0a.6.6,0,0,0,0,.81l1.41,1.51a.6.6,0,0,0,.88,0A.61.61,0,0,0,33.22,67.61Z"/><path class="cls-3" d="M32.43,64h0a.59.59,0,0,0,0,.81L34,66.54a.59.59,0,0,0,.87,0h0a.59.59,0,0,0,0-.81l-1.56-1.7A.59.59,0,0,0,32.43,64Z"/><path class="cls-2" d="M46.92,70.15a.62.62,0,0,0-.82-.37l-1.88.85a.6.6,0,0,0-.35.77h0a.61.61,0,0,0,.81.37l1.89-.85A.61.61,0,0,0,46.92,70.15Z"/><path class="cls-2" d="M47.68,61.78a1.38,1.38,0,0,0-1.06-.49H44.53a.63.63,0,0,0,0,1.25h2.09c.24,0,.35.13.35.39v3a.58.58,0,0,0,1.16,0v-3A1.6,1.6,0,0,0,47.68,61.78Z"/><path class="cls-2" d="M48.07,67.55A1.38,1.38,0,0,0,47,67.07H45.64c-.18,0-.28-.1-.28-.3V63.9a.56.56,0,0,0-.57-.57.57.57,0,0,0-.58.57v2.87a1.53,1.53,0,0,0,.42,1.09,1.3,1.3,0,0,0,1,.46H47q.36,0,.36.39v4.05q0,.39-.36.39H44.84a.63.63,0,0,0-.63.63h0a.63.63,0,0,0,.63.62H47a1.41,1.41,0,0,0,1.07-.48,1.68,1.68,0,0,0,.44-1.16V68.71A1.64,1.64,0,0,0,48.07,67.55Z"/><path class="cls-2" d="M56.57,65.65l-2.44-2.94-1-1.27a.87.87,0,0,0-.61-.42c-.39,0-.71.54-.95.86l-2.93,3.58a.58.58,0,0,0,.09.79h0a.58.58,0,0,0,.86-.09l2.89-3.5h.08l3.06,3.7a.6.6,0,0,0,.87.1A.59.59,0,0,0,56.57,65.65Z"/><path class="cls-2" d="M55.79,73.19a.5.5,0,0,1,.4.18.58.58,0,0,1,.17.44.61.61,0,0,1-.17.44.5.5,0,0,1-.4.18h-6.2a.53.53,0,0,1-.4-.18.61.61,0,0,1-.17-.44.58.58,0,0,1,.17-.44.53.53,0,0,1,.4-.18Z"/><path class="cls-2" d="M50.94,65.76a.63.63,0,0,0,0,1.25h3a.63.63,0,0,0,.62-.63h0a.62.62,0,0,0-.62-.62Z"/><path class="cls-2" d="M59.81,65.44h0a.59.59,0,0,0-.6.59l0,4.08a.59.59,0,0,0,1.17,0l0-4.08A.58.58,0,0,0,59.81,65.44Z"/><path class="cls-2" d="M29.56,61.84h0a.59.59,0,0,0-.6.59v2.45a.59.59,0,0,0,.57.58.58.58,0,0,0,.6-.58V62.43A.59.59,0,0,0,29.56,61.84Z"/><path class="cls-2" d="M63.88,60.89a.58.58,0,0,0-.78.32l-1.19,3a.6.6,0,0,0,.3.75h0a.58.58,0,0,0,.79-.32l1.19-3A.59.59,0,0,0,63.88,60.89Z"/><path class="cls-2" d="M68.75,67.58H66.48V66.21h1.61a.63.63,0,1,0,0-1.25H64.63l.08-.21a.57.57,0,0,0-1.08-.39L63,66.24a.58.58,0,0,0,.33.73.57.57,0,0,0,.76-.34l.16-.42h1.13v1.37H63a.63.63,0,0,0,0,1.25h2.37v1.81a.58.58,0,0,0,.58.57h0a.57.57,0,0,0,.57-.57V68.83h2.27a.63.63,0,0,0,0-1.25Z"/><path class="cls-2" d="M68.48,69.36a.58.58,0,0,0-.57.58v1.37c0,.2-.09.3-.26.3H64.18q-.27,0-.27-.3V69.94a.58.58,0,0,0-.57-.58h0a.58.58,0,0,0-.58.58v1.37a1.53,1.53,0,0,0,.42,1.09,1.29,1.29,0,0,0,1,.46h3.47a1.26,1.26,0,0,0,1-.46,1.53,1.53,0,0,0,.42-1.09V69.94A.58.58,0,0,0,68.48,69.36Z"/><path class="cls-2" d="M70.53,62.34a1.65,1.65,0,0,0-1.21-.5H65.08a.63.63,0,0,0,0,1.25h4.24c.38,0,.57.21.57.62v8.82c0,.42-.19.62-.57.62H66.87a.63.63,0,0,0-.62.63h0a.62.62,0,0,0,.62.62h2.45a1.64,1.64,0,0,0,1.28-.56A2,2,0,0,0,71,72.53V63.71A1.89,1.89,0,0,0,70.53,62.34Z"/><circle class="cls-3" cx="59.82" cy="62.41" r="0.76"/><circle class="cls-2" cx="59.82" cy="73.67" r="0.76"/><path class="cls-2" d="M40.59,62.4a1.59,1.59,0,0,0-1.22-.54H35.6v-.68a.61.61,0,0,0-.61-.61h0a.61.61,0,0,0-.61.61v.68H31a.62.62,0,1,0,0,1.24h8.37a.51.51,0,0,1,.4.19.58.58,0,0,1,.17.44v1.16a.58.58,0,0,0,.58.57.57.57,0,0,0,.57-.57V63.73A1.88,1.88,0,0,0,40.59,62.4Z"/><path class="cls-2" d="M55.85,69.19a.45.45,0,0,0-.62.09l-.94,1.17a.15.15,0,0,1-.24,0l-.93-1.17a.46.46,0,0,0-.62-.09.47.47,0,0,0-.09.66l1.25,1.58a.64.64,0,0,0,.5.24h0a.62.62,0,0,0,.52-.24l1.26-1.58A.47.47,0,0,0,55.85,69.19Z"/><circle class="cls-4" cx="50.76" cy="70.39" r="1.07"/><path class="cls-3" d="M30.06,82.41h2.12v1.13H29.64a.68.68,0,0,1-.68-.68V78.19a.69.69,0,0,1,.68-.68h.42Z"/><path class="cls-3" d="M35.85,79.23h.44a.59.59,0,0,1,.59.59V83a.58.58,0,0,1-.59.59h-.44V83a1.49,1.49,0,0,1-1.29.63A1.76,1.76,0,0,1,33.19,83a2.62,2.62,0,0,1,0-3.24,1.76,1.76,0,0,1,1.37-.66,1.49,1.49,0,0,1,1.29.63Zm-1.89,3a1.09,1.09,0,0,0,1.58,0,1.2,1.2,0,0,0,.31-.87,1.25,1.25,0,0,0-.31-.88,1.09,1.09,0,0,0-1.58,0,1.25,1.25,0,0,0-.31.88A1.2,1.2,0,0,0,34,82.26Z"/><path class="cls-3" d="M49.86,79.23h.44a.59.59,0,0,1,.59.59V83a.58.58,0,0,1-.59.59h-.44V83a1.5,1.5,0,0,1-1.29.63A1.79,1.79,0,0,1,47.2,83a2.59,2.59,0,0,1,0-3.24,1.76,1.76,0,0,1,1.37-.66,1.5,1.5,0,0,1,1.29.63Zm-1.89,3a1.09,1.09,0,0,0,1.58,0,1.2,1.2,0,0,0,.31-.87,1.25,1.25,0,0,0-.31-.88,1.09,1.09,0,0,0-1.58,0,1.25,1.25,0,0,0-.31.88A1.2,1.2,0,0,0,48,82.26Z"/><path class="cls-3" d="M64.92,79.23h.44a.59.59,0,0,1,.59.59V83a.58.58,0,0,1-.59.59h-.44V83a1.52,1.52,0,0,1-1.29.62A1.78,1.78,0,0,1,62.26,83a2.59,2.59,0,0,1,0-3.24,1.76,1.76,0,0,1,1.37-.66,1.5,1.5,0,0,1,1.29.63Zm-1.89,3a1.09,1.09,0,0,0,1.58,0,1.22,1.22,0,0,0,.31-.87,1.25,1.25,0,0,0-.31-.88,1.09,1.09,0,0,0-1.58,0,1.25,1.25,0,0,0-.31.88A1.22,1.22,0,0,0,63,82.26Z"/><path class="cls-3" d="M40.29,79.11a1.76,1.76,0,0,1,1.37.66,2.59,2.59,0,0,1,0,3.24,1.76,1.76,0,0,1-1.37.66A1.49,1.49,0,0,1,39,83v.5h-.5A.52.52,0,0,1,38,83V78a.53.53,0,0,1,.53-.53H39v2.23A1.49,1.49,0,0,1,40.29,79.11Zm-1,3.15a1,1,0,0,0,.79.34,1,1,0,0,0,.79-.34,1.2,1.2,0,0,0,.31-.87,1.25,1.25,0,0,0-.31-.88,1.07,1.07,0,0,0-.79-.34,1,1,0,0,0-.79.34,1.25,1.25,0,0,0-.31.88A1.2,1.2,0,0,0,39.31,82.26Z"/><path class="cls-3" d="M46.84,78.08v.57h-1.5v4.23a.66.66,0,0,1-.66.66h-.44V78.65h-1.5v-.57a.57.57,0,0,1,.58-.57h3A.56.56,0,0,1,46.84,78.08Z"/><path class="cls-3" d="M55.37,83a2,2,0,0,1-3,0,2.46,2.46,0,0,1,0-3.24,2,2,0,0,1,3,0,2.46,2.46,0,0,1,0,3.24Zm-2.26-.77a1,1,0,0,0,.76.34,1,1,0,0,0,.78-.34,1.23,1.23,0,0,0,.31-.85,1.26,1.26,0,0,0-.31-.86,1,1,0,0,0-.78-.33,1,1,0,0,0-.76.33,1.21,1.21,0,0,0-.31.86A1.19,1.19,0,0,0,53.11,82.24Z"/><path class="cls-3" d="M60.28,80.41A1.52,1.52,0,0,1,61,81.79a1.69,1.69,0,0,1-1.73,1.75H57.61a.7.7,0,0,1-.7-.69V78.21a.7.7,0,0,1,.7-.7h1.5a1.66,1.66,0,0,1,1.69,1.7A1.5,1.5,0,0,1,60.28,80.41Zm-1.17-1.79H58V80h1.1a.52.52,0,0,0,.42-.19.68.68,0,0,0,.18-.48.71.71,0,0,0-.17-.47A.54.54,0,0,0,59.11,78.62Zm.17,3.81a.61.61,0,0,0,.46-.2.81.81,0,0,0,0-1,.61.61,0,0,0-.46-.2H58v1.42Z"/><path class="cls-3" d="M70.43,83a2,2,0,0,1-3,0,2.46,2.46,0,0,1,0-3.24,2,2,0,0,1,3,0,2.46,2.46,0,0,1,0,3.24Zm-2.26-.77a1,1,0,0,0,.76.34,1,1,0,0,0,.78-.34,1.23,1.23,0,0,0,.31-.85,1.26,1.26,0,0,0-.31-.86,1,1,0,0,0-.78-.33,1,1,0,0,0-.76.33,1.21,1.21,0,0,0-.31.86A1.19,1.19,0,0,0,68.17,82.24Z"/></g></g></svg>